# xmcd
#
# Track frame offsets: 
#        150
#        20097
#        37892
#        51760
#        70612
#        83532
#        101067
#        113590
#        127665
#        139137
#        158875
#        171107
#        184400
#        194782
#        210480
#        218650
#        227032
#
# Disc length: 3280 seconds
#
# Revision: 0
# Processed by: cddbd v1.5.2PL0 Copyright (c) Steve Scherf et al.
# Submitted via: ExactAudioCopyFreeDBPlugin 1.0
#
DISCID=e50cce11
DTITLE=群星 - 贺处小曲
DYEAR=1999
DGENRE=
TTITLE0=家家欢乐
TTITLE1=恭喜大家万事如意
TTITLE2=恭喜贺喜
TTITLE3=春花灯
TTITLE4=快乐伴侣
TTITLE5=心心相印
TTITLE6=步步高升
TTITLE7=新春乐
TTITLE8=满堂春
TTITLE9=春风得意
TTITLE10=跨凤乘龙
TTITLE11=接财神
TTITLE12=恭喜发财
TTITLE13=金玉满堂
TTITLE14=祝寿曲
TTITLE15=祝婚曲
TTITLE16=得胜令
EXTD=
EXTT0=
EXTT1=
EXTT2=
EXTT3=
EXTT4=
EXTT5=
EXTT6=
EXTT7=
EXTT8=
EXTT9=
EXTT10=
EXTT11=
EXTT12=
EXTT13=
EXTT14=
EXTT15=
EXTT16=
PLAYORDER=
